<?xml version="1.0" encoding="utf-8"?>
<!-- Generator: Adobe Illustrator 15.1.0, SVG Export Plug-In . SVG Version: 6.00 Build 0)  -->
<!DOCTYPE svg PUBLIC "-//W3C//DTD SVG 1.1//EN" "http://www.w3.org/Graphics/SVG/1.1/DTD/svg11.dtd">
<svg version="1.1" id="圖層_1" xmlns="http://www.w3.org/2000/svg" xmlns:xlink="http://www.w3.org/1999/xlink" x="0px" y="0px"
	 width="2409.449px" height="420px" viewBox="0 0 2409.449 420" enable-background="new 0 0 2409.449 420" xml:space="preserve">
<g>
	<g>
		<polygon fill="#E50012" points="473.195,206.14 193.312,206.14 333.261,349.702 		"/>
		<polygon fill="#A50319" points="193.312,206.14 193.312,413.163 396.398,413.163 		"/>
		<polygon fill="#231815" points="193.312,206.14 165.174,233.571 164.818,233.222 164.818,82.224 87.187,6.524 4.476,87.681 
			87.187,87.681 87.187,157.542 87.187,157.919 87.187,309.653 87.22,309.614 193.312,413.043 		"/>
		<polygon fill="#E50012" points="473.195,206.14 193.312,206.14 333.261,349.702 		"/>
	</g>
	<g>
		<path fill="#231815" d="M1797.708,354.492c-4.2,7.238-8.29,12.863-12.3,16.874c-2.584,2.53-6.836,4.146-12.785,4.898
			c-5.92,0.727-12.002,1.104-18.3,1.104c-6.433,0-11.465-0.216-15.125-0.646c-3.633-0.431-6.486-1.399-8.531-2.881
			c-2.045-1.398-3.419-3.605-4.118-6.594c-0.699-2.987-1.049-7.05-1.049-12.244V245.197c0-2.745,0.51-5.193,1.533-7.374
			c1.022-2.153,3.041-3.741,6.109-4.763c2.503-0.782,5.49-1.373,8.882-1.831c3.418-0.431,6.378-0.753,8.908-0.996v-9.178h-91.693
			v9.178c2.019,0.323,4.764,0.807,8.154,1.481c3.418,0.672,6.351,1.56,8.773,2.636c3.311,1.508,5.383,3.176,6.245,5.007
			c0.859,1.857,1.291,4.171,1.291,6.997v117.826c0,3.067-0.538,5.571-1.642,7.535c-1.104,1.965-3.068,3.499-5.895,4.604
			c-1.157,0.456-3.605,0.969-7.293,1.479c-3.687,0.511-6.89,0.86-9.635,1.104v9.176h153.836l3.283-53.557h-8.585
			C1805.271,340.578,1801.906,347.225,1797.708,354.492z"/>
		<path fill="#231815" d="M2131.808,230.233c2.744,0.485,6.379,1.373,10.846,2.664c4.468,1.293,7.831,2.827,10.119,4.629
			c2.907,2.37,5.033,6.002,6.352,10.9c1.346,4.898,1.991,12.353,1.991,22.391v63.194l-91.316-112.956h-52.991h-9.878h-32.968v49.79
			v42.307v14.318c0,16.176-3.875,28.394-11.627,36.71c-7.751,8.343-18.463,12.488-32.081,12.488
			c-13.887,0-24.464-3.769-31.757-11.304c-7.267-7.536-10.927-19.567-10.927-36.145v-84.265c0-2.746,0.512-5.222,1.534-7.43
			c1.022-2.179,3.014-3.767,6.002-4.709c2.664-0.861,5.302-1.508,7.886-1.938c2.583-0.431,5.14-0.728,7.643-0.861v-8.963h-87.549
			v8.963c1.884,0.215,4.307,0.646,7.294,1.291c2.96,0.619,5.49,1.454,7.535,2.45c2.96,1.588,4.979,3.336,6.057,5.301
			c1.049,1.966,1.588,4.335,1.588,7.079v85.449c0,19.216,6.513,34.207,19.538,44.973c13.025,10.737,31.435,16.12,55.199,16.12
			c20.4,0,36.817-5.571,49.197-16.713c12.406-11.142,18.598-25.863,18.598-44.138V269.66c0-10.199,0.617-17.842,1.829-22.929
			c1.211-5.114,3.311-8.64,6.299-10.604c2.905-2.046,6.485-3.472,10.765-4.306c1.077-0.188,1.883-0.323,2.826-0.498
			c3.296,0.78,6.58,1.573,9.311,2.73c3.553,1.534,6.729,3.635,9.474,6.299c2.583,2.529,4.495,5.518,5.706,9.016
			c1.212,3.499,1.831,7.212,1.831,11.115v79.097c0,10.847-0.565,18.544-1.723,23.146c-1.131,4.576-3.231,8.021-6.299,10.281
			c-2.663,1.885-5.975,3.284-9.931,4.199c-3.982,0.889-7.481,1.452-10.55,1.696v9.176h71.805v-9.176
			c-2.745-0.458-6.433-1.373-11.062-2.692c-4.629-1.346-7.993-2.88-10.119-4.603c-2.907-2.368-5.006-6.056-6.298-11.115
			c-1.291-5.06-1.938-12.461-1.938-22.202v-78.399l104.047,129.13h20.965V269.66c0-9.957,0.594-17.492,1.805-22.633
			c1.237-5.141,3.283-8.773,6.188-10.899c3.285-2.423,6.971-3.955,11.063-4.603c4.091-0.618,7.212-1.049,9.419-1.292v-9.178h-71.696
			V230.233z"/>
		<path fill="#231815" d="M2313.202,311v9.178c2.342,0.296,5.303,0.808,8.827,1.534c3.525,0.699,6.486,1.587,8.828,2.691
			c3.067,1.427,5.088,3.095,6.109,5.005c1.023,1.939,1.533,4.307,1.533,7.132v33.885c-2.987,2.745-7.159,5.168-12.541,7.238
			c-5.355,2.073-11.491,3.123-18.408,3.123c-14.749,0-26.16-6.944-34.207-20.857c-8.02-13.888-12.058-33.13-12.058-57.701
			c0-23.173,4.118-41.367,12.3-54.555c8.209-13.187,19.835-19.78,34.907-19.78c12.701,0,23.226,4.441,31.542,13.322
			c8.315,8.881,15.475,22.498,21.422,40.826h10.362l-1.049-60.985h-10.255l-7.293,6.487c-5.248-2.664-11.922-5.195-20.025-7.537
			c-8.073-2.367-16.846-3.523-26.348-3.523c-13.968,0-26.697,2.152-38.189,6.458c-11.518,4.334-21.261,10.441-29.253,18.382
			c-8.183,8.021-14.4,17.548-18.732,28.607c-4.307,11.09-6.459,23.147-6.459,36.172c0,13.968,2.287,26.375,6.89,37.222
			c4.575,10.846,10.873,19.914,18.893,27.21c7.994,7.373,17.306,12.917,27.883,16.604c10.604,3.688,21.934,5.545,34.018,5.545
			c12.866,0,26.967-2.072,42.309-6.243c15.34-4.146,26.938-8.587,34.798-13.297c-0.161-3.523-0.269-6.485-0.35-8.881
			c-0.081-2.395-0.136-5.569-0.136-9.473v-19.432c0-2.583,0.514-5.061,1.535-7.428c1.023-2.343,3.149-4.037,6.352-5.06
			c2.826-0.943,5.194-1.563,7.077-1.884c1.885-0.297,4.038-0.593,6.46-0.808V311H2313.202z"/>
	</g>
	<g>
		<path fill="#231815" d="M1157.799,239.654c-8.006-7.295-17.48-12.973-28.42-17.064c-10.954-4.091-22.661-6.107-35.135-6.107
			c-12.555,0-24.396,2.098-35.498,6.296c-11.103,4.199-20.697,10.175-28.771,17.951c-8.168,7.914-14.586,17.441-19.243,28.528
			c-4.682,11.115-7.01,23.495-7.01,37.14c0,13.107,2.395,25.003,7.185,35.659c4.778,10.685,11.25,19.757,19.418,27.184
			c8.235,7.618,17.776,13.429,28.596,17.439c10.832,3.982,22.324,6.002,34.489,6.002c15.072,0,28.057-2.289,38.971-6.89
			c10.9-4.602,20.399-11.007,28.487-19.243c7.684-7.94,13.564-17.385,17.654-28.366c4.078-10.98,6.11-22.554,6.11-34.718
			c0-13.673-2.409-25.837-7.239-36.494C1172.575,256.286,1166.035,247.189,1157.799,239.654z M1135.206,334.926
			c-1.574,9.044-4.131,17.145-7.657,24.276c-3.297,6.863-7.724,12.244-13.294,16.174c-5.572,3.93-12.246,5.896-20.011,5.896
			c-7.926,0-14.601-1.966-20.01-5.841c-5.422-3.903-9.891-9.34-13.43-16.337c-3.444-6.916-5.974-15.017-7.589-24.275
			c-1.602-9.285-2.409-19.135-2.409-29.604c0-24.6,3.687-43.627,11.062-57.108c7.374-13.485,18.167-20.213,32.376-20.213
			c8.317,0,15.26,2.152,20.831,6.486c5.571,4.305,10.04,10.065,13.417,17.197c3.296,7.158,5.625,15.313,6.998,24.465
			c1.372,9.149,2.072,18.568,2.072,28.231C1137.561,315.684,1136.767,325.883,1135.206,334.926z"/>
		<path fill="#231815" d="M1502.685,311v9.178c2.341,0.296,5.302,0.808,8.828,1.534c3.524,0.699,6.485,1.587,8.827,2.691
			c3.068,1.427,5.086,3.095,6.109,5.005c1.022,1.939,1.534,4.307,1.534,7.132v33.885c-2.987,2.745-7.159,5.168-12.542,7.238
			c-5.355,2.073-11.491,3.123-18.408,3.123c-14.749,0-26.159-6.944-34.207-20.857c-8.02-13.888-12.057-33.13-12.057-57.701
			c0-23.173,4.118-41.367,12.3-54.555c8.208-13.187,19.834-19.78,34.906-19.78c12.702,0,23.226,4.441,31.542,13.322
			s15.476,22.498,21.422,40.826h10.362l-1.05-60.985h-10.254l-7.293,6.487c-5.248-2.664-11.922-5.195-20.023-7.537
			c-8.074-2.367-16.848-3.523-26.349-3.523c-13.968,0-26.697,2.152-38.189,6.458c-11.52,4.334-21.261,10.441-29.254,18.382
			c-8.183,8.021-14.399,17.548-18.732,28.607c-4.306,11.09-6.458,23.147-6.458,36.172c0,13.968,2.287,26.375,6.889,37.222
			c4.576,10.846,10.873,19.914,18.893,27.21c7.994,7.373,17.307,12.917,27.883,16.604c10.604,3.688,21.934,5.545,34.019,5.545
			c12.864,0,26.967-2.072,42.308-6.243c15.34-4.146,26.939-8.587,34.799-13.297c-0.163-3.523-0.27-6.485-0.351-8.881
			c-0.08-2.395-0.134-5.569-0.134-9.473v-19.432c0-2.583,0.511-5.061,1.533-7.428c1.022-2.343,3.149-4.037,6.353-5.06
			c2.825-0.943,5.193-1.563,7.078-1.884c1.883-0.297,4.036-0.593,6.458-0.808V311H1502.685z"/>
		<path fill="#231815" d="M1350.585,270.442c0,0.134,0.014,0.241,0.014,0.375v63.194l-91.316-112.956h-62.877v9.421
			c4.549,0.86,8.613,2.07,12.173,3.578c3.579,1.534,6.728,3.635,9.473,6.299c2.611,2.529,4.495,5.518,5.707,9.016
			c1.237,3.499,1.828,7.212,1.828,11.115v79.097c0,10.847-0.564,18.544-1.693,23.146c-1.132,4.576-3.23,8.021-6.299,10.281
			c-2.664,1.885-6.002,3.284-9.951,4.199c-3.97,0.889-7.468,1.452-10.536,1.696v9.176h71.811v-9.176
			c-2.745-0.458-6.432-1.373-11.061-2.692c-4.63-1.346-8.021-2.88-10.146-4.603c-2.88-2.368-4.98-6.056-6.298-11.115
			c-1.292-5.06-1.938-12.461-1.938-22.202v-78.399l104.073,129.13h20.938V269.66c0-9.957,0.618-17.492,1.829-22.633
			c1.212-5.141,3.284-8.773,6.164-10.899c3.31-2.423,6.997-3.955,11.088-4.603c4.063-0.618,7.213-1.049,9.394-1.292v-9.178h-42.376
			V270.442z"/>
		<path fill="#231815" d="M956.959,251.496c-0.902,3.552-2.025,7.736-3.444,12.756c-2.665,9.097-5.948,20.051-9.824,32.835
			c-3.888,12.811-9.083,29.281-15.596,49.438l-43.977-125.469h-24.976l-38.067,121.596c-8.397-25.299-15.462-46.508-21.182-63.597
			c-5.732-17.09-9.54-28.69-11.424-34.799c-0.31-1.346-0.605-2.531-0.874-3.526c-0.283-1.021-0.417-2.099-0.417-3.203
			c0-0.538,0.161-1.157,0.47-1.882c0.311-0.701,1.171-1.373,2.584-1.993c1.494-0.619,3.526-1.237,6.109-1.829
			c2.583-0.593,6.5-1.185,11.748-1.804v-8.963h-87.804h-1.306h-34.233l-35.774,38.245c-0.84,0.94-1.46,1.708-2.375,2.717
			c-2.569,2.88-5.914,6.365-9.688,10.174l-0.579,0.619v-0.054c-2.671,2.691-5.417,5.437-8.68,8.559
			c-8.168,7.857-15.313,14.56-21.423,20.131h-4.952v-56.249c0-2.664,0.511-5.113,1.535-7.293c1.021-2.207,3.054-3.822,6.122-4.844
			c2.423-0.782,5.356-1.373,8.76-1.831c3.417-0.431,6.338-0.753,8.773-0.996v-9.178h-91.693v9.178
			c2.125,0.243,4.898,0.728,8.356,1.426c3.458,0.7,6.391,1.615,8.828,2.691c3.135,1.508,5.181,3.176,6.122,5.061
			c0.942,1.884,1.414,4.198,1.414,6.943v118.418c0,2.987-0.552,5.464-1.643,7.429c-1.103,1.965-3.068,3.499-5.894,4.574
			c-1.575,0.646-4.293,1.104-8.181,1.426c-3.876,0.324-6.877,0.539-9.003,0.702v9.176h88.746v-9.176
			c-2.745-0.324-5.503-0.782-8.289-1.401c-2.786-0.644-4.885-1.265-6.298-1.884c-3.068-1.345-5.101-2.986-6.122-4.952
			c-1.024-1.964-1.535-4.358-1.535-7.185V311h6.123c12.474,15.529,22.714,28.448,30.721,38.702
			c8.007,10.279,16.996,23.091,26.954,38.377h66.152v-9.176c-1.804-0.083-3.956-0.352-6.459-0.835
			c-2.503-0.458-4.737-1.131-6.701-1.992c-4.145-1.803-7.954-4.172-11.399-7.105c-3.444-2.961-6.498-6.028-9.164-9.258
			c-10.496-12.649-21.046-25.621-31.623-38.916c-10.577-13.321-19.633-24.572-27.155-33.75c8.531-8.64,15.515-15.69,20.965-21.233
			c5.437-5.518,12.353-12.03,20.723-19.565c5.88-5.25,11.801-8.991,17.762-11.25c5.773-2.154,12.946-3.688,21.389-4.645
			c2.88,0.378,5.491,0.863,7.717,1.469c2.396,0.672,4.657,1.722,6.769,3.121c2.987,1.964,5.41,3.903,7.294,5.841
			c1.884,1.909,3.579,5.006,5.059,9.23c4.791,13.968,10.671,31.246,17.669,51.862c6.97,20.587,17.022,49.951,30.129,88.086h23.751
			l39.723-124.068l43.99,124.068h23.778c9.729-28.313,19.082-55.63,28.071-81.924c8.989-26.293,15.636-45.375,19.956-57.325
			c1.252-3.444,2.651-6.378,4.172-8.827c1.534-2.421,4.104-4.654,7.709-6.7c2.355-1.265,4.751-2.289,7.187-3.122
			c2.423-0.835,4.858-1.346,7.293-1.588v-9.421h-34.018L956.959,251.496z"/>
	</g>
</g>
</svg>
