<?xml version="1.0" encoding="iso-8859-1"?>
<!-- Uploaded to: SVG Repo, www.svgrepo.com, Generator: SVG Repo Mixer Tools -->
<svg height="800px" width="800px" version="1.1" id="Layer_1" xmlns="http://www.w3.org/2000/svg" xmlns:xlink="http://www.w3.org/1999/xlink" 
	 viewBox="0 0 512.135 512.135" xml:space="preserve">
<g transform="translate(-1)">
	<path style="fill:#4482C3;" d="M390.538,150.695c-2.395-4.105-5.476-7.758-9.112-10.813c-7.472-6.274-16.905-9.711-26.659-9.711
		H317.8l-60.746,69.424l-60.746-69.424h-36.977c-9.745,0-19.187,3.436-26.65,9.711c-3.636,3.055-6.717,6.708-9.112,10.813
		L6.972,350.358c-3.263,5.589-1.362,12.774,4.252,16.011l24.871,14.362c5.563,3.211,12.67,1.336,15.924-4.2l74.865-127.471
		l-0.017,219.553l59.817,27.908c44.596,20.818,96.117,20.818,140.705,0l59.817-27.908l0.017-219.553l75.403,126.985
		c3.263,5.502,10.344,7.35,15.889,4.148l23.734-13.703c6.257-3.61,8.374-11.628,4.712-17.859L390.538,150.695z"/>
	<path style="fill:#285680;" d="M506.96,348.629L390.537,150.694c-2.395-4.096-5.476-7.758-9.112-10.813
		c-7.463-6.274-16.905-9.711-26.65-9.711h-36.977l-60.746,69.424l-42.617,306.749c37.385,9.919,77.355,6.795,112.952-9.815
		l59.817-27.917l0.017-219.553l75.403,126.985c3.263,5.502,10.344,7.35,15.889,4.148l23.734-13.702
		C508.505,362.879,510.622,354.86,506.96,348.629"/>
	<path style="fill:#A5A5A4;" d="M257.097,86.78c-4.799,0-8.678-3.879-8.678-8.678v-9.78c-14.961-3.853-26.034-17.469-26.034-33.61
		C222.385,15.568,237.954,0,257.097,0c19.144,0,34.712,15.568,34.712,34.712c0,4.799-3.879,8.678-8.678,8.678
		s-8.678-3.879-8.678-8.678c0-9.572-7.784-17.356-17.356-17.356s-17.356,7.784-17.356,17.356s7.784,17.356,17.356,17.356
		c4.799,0,8.678,3.879,8.678,8.678v17.356C265.775,82.901,261.896,86.78,257.097,86.78"/>
	<g>
		<path style="fill:#4482C3;" d="M291.751,234.305c0,4.79-3.888,8.678-8.678,8.678c-4.79,0-8.678-3.888-8.678-8.678
			s3.888-8.678,8.678-8.678C287.863,225.627,291.751,229.515,291.751,234.305"/>
		<path style="fill:#4482C3;" d="M283.073,295.051c0,4.79-3.888,8.678-8.678,8.678c-4.79,0-8.678-3.888-8.678-8.678
			c0-4.79,3.888-8.678,8.678-8.678C279.185,286.373,283.073,290.261,283.073,295.051"/>
		<path style="fill:#4482C3;" d="M274.395,355.797c0,4.79-3.888,8.678-8.678,8.678c-4.79,0-8.678-3.888-8.678-8.678
			c0-4.79,3.888-8.678,8.678-8.678C270.507,347.119,274.395,351.006,274.395,355.797"/>
		<path style="fill:#4482C3;" d="M265.717,416.542c0,4.79-3.888,8.678-8.678,8.678c-4.79,0-8.678-3.888-8.678-8.678
			c0-4.79,3.888-8.678,8.678-8.678C261.829,407.864,265.717,411.752,265.717,416.542"/>
		<polygon style="fill:#4482C3;" points="309.12,208.271 281.585,171.555 317.798,130.169 352.51,130.169 		"/>
	</g>
	<polygon style="fill:#285680;" points="204.984,208.271 232.52,171.555 196.306,130.169 161.594,130.169 	"/>
	<g>
		<path style="fill:#4482C3;" d="M335.14,303.729c-4.799,0-8.678-3.879-8.678-8.678c0-9.572-7.784-17.356-17.356-17.356
			c-4.799,0-8.678-3.879-8.678-8.678c0-4.799,3.879-8.678,8.678-8.678c10.353,0,19.673,4.556,26.034,11.776
			c6.361-7.22,15.681-11.776,26.034-11.776c4.799,0,8.678,3.879,8.678,8.678c0,4.799-3.879,8.678-8.678,8.678
			c-9.572,0-17.356,7.784-17.356,17.356C343.818,299.85,339.939,303.729,335.14,303.729"/>
		<path style="fill:#4482C3;" d="M462.623,375.573c3.263,5.502,10.353,7.35,15.889,4.157l23.743-13.711
			c6.257-3.61,8.366-11.628,4.703-17.859l-15.36-26.121l-44.101,28.056L462.623,375.573z"/>
	</g>
	<path style="fill:#285680;" d="M22.842,322.716L6.978,349.887c-3.272,5.597-1.362,12.774,4.244,16.011l24.88,14.362
		c5.554,3.211,12.67,1.336,15.915-4.2L69,347.153L22.842,322.716z"/>
	<polygon style="fill:#1C425E;" points="196.306,130.169 257.052,199.593 317.798,130.169 331.483,130.169 257.095,78.102 
		182.717,130.169 	"/>
</g>
</svg>