<?xml version="1.0" encoding="iso-8859-1"?>
<!-- Uploaded to: SVG Repo, www.svgrepo.com, Generator: SVG Repo Mixer Tools -->
<svg height="800px" width="800px" version="1.1" id="Layer_1" xmlns="http://www.w3.org/2000/svg" xmlns:xlink="http://www.w3.org/1999/xlink" 
	 viewBox="0 0 503.607 503.607" xml:space="preserve">
<g transform="translate(1)">
	<g>
		<path style="fill:#FFE100;" d="M477.426,258.518v39.449c0,64.63-104.918,117.508-235.016,117.508h25.18
			c130.098,0,235.016-52.879,235.016-117.508v-92.328C502.607,224.944,493.374,242.57,477.426,258.518"/>
		<path style="fill:#FFE100;" d="M267.59,88.131c-4.197,0-8.393,0-12.59,0c124.223,3.357,222.426,54.557,222.426,117.508
			S379.223,319.79,255,323.148c4.197,0,8.393,0,12.59,0c130.098,0,235.016-52.879,235.016-117.508S397.689,88.131,267.59,88.131"/>
	</g>
	<path style="fill:#FFA800;" d="M99.721,415.475H36.77c-16.787,0-29.377-13.429-29.377-29.377v-32.734
		c0-16.787,13.43-29.377,29.377-29.377h62.951V415.475z"/>
	<path style="fill:#FFE100;" d="M74.541,369.311c0-11.751-9.233-20.984-20.984-20.984s-20.984,9.233-20.984,20.984
		c0,11.751,9.233,20.984,20.984,20.984S74.541,381.062,74.541,369.311"/>
	<path style="fill:#FDCC00;" d="M275.984,323.148c-130.098,0-235.016-52.879-235.016-117.508v92.328
		c0,8.393,1.679,16.787,5.875,25.18H275.984z"/>
	<path style="fill:#FFFFFF;" d="M40.967,258.518c-15.948-15.948-25.18-33.574-25.18-52.879v92.328c0,8.393,1.679,16.787,5.875,25.18
		h25.18c-4.197-8.393-5.875-16.787-5.875-25.18V258.518z"/>
	<path style="fill:#FFE100;" d="M225.623,323.148H99.721v92.328h125.902c130.098,0,235.016-52.879,235.016-117.508v-92.328
		C460.639,270.269,355.721,323.148,225.623,323.148"/>
	<path style="fill:#FFA800;" d="M460.639,258.518v39.449c0,64.63-104.918,117.508-235.016,117.508h25.18
		c130.098,0,235.016-52.879,235.016-117.508v-92.328C485.82,224.944,476.587,242.57,460.639,258.518"/>
	<g>
		<path style="fill:#FFE100;" d="M485.82,205.639c0-64.63-104.918-117.508-235.016-117.508S15.787,141.01,15.787,205.639
			s104.918,117.508,235.016,117.508S485.82,270.269,485.82,205.639"/>
		<path style="fill:#FFE100;" d="M460.639,205.639c0-64.63-104.918-117.508-235.016-117.508S15.787,141.01,15.787,205.639
			s79.738,117.508,209.836,117.508S460.639,270.269,460.639,205.639"/>
	</g>
	<path style="fill:#FFA800;" d="M250.803,88.131c-4.197,0-8.393,0-12.59,0c124.223,3.357,222.426,54.557,222.426,117.508
		S362.436,319.79,238.213,323.148c4.197,0,8.393,0,12.59,0c130.098,0,235.016-52.879,235.016-117.508S380.902,88.131,250.803,88.131
		"/>
	<path style="fill:#FFFFFF;" d="M250.803,323.148c4.197,0,8.393,0,12.59,0C139.17,319.79,40.967,268.59,40.967,205.639
		S139.17,91.489,263.393,88.131c-4.197,0-8.393,0-12.59,0c-174.584,0-235.016,46.164-235.016,117.508
		C15.787,270.269,120.705,323.148,250.803,323.148"/>
	<path style="fill:#FDCC00;" d="M359.918,205.639c0-36.931-60.433-67.148-134.295-67.148c-52.039,0-109.115,30.216-109.115,67.148
		s57.075,67.148,109.115,67.148C299.485,272.787,359.918,242.57,359.918,205.639"/>
	<path style="fill:#FFA800;" d="M250.803,138.492c-4.197,0-8.393,0-12.59,0c67.987,3.357,121.705,31.895,121.705,67.148
		s-53.718,63.79-121.705,67.148c4.197,0,8.393,0,12.59,0c73.862,0,134.295-30.216,134.295-67.148S324.666,138.492,250.803,138.492"
		/>
	<path style="fill:#FFE100;" d="M292.77,205.639c0-18.466-30.216-33.574-67.148-33.574c7.554,0-41.967,15.108-41.967,33.574
		c0,18.466,49.521,33.574,41.967,33.574C262.554,239.213,292.77,224.105,292.77,205.639"/>
	<path style="fill:#FFA800;" d="M250.803,172.066c-4.197,0-8.393,0-12.59,0.839c31.056,3.357,54.557,16.787,54.557,32.734
		s-23.502,30.216-54.557,32.734c4.197,0,8.393,0.839,12.59,0.839c36.931,0,67.148-15.108,67.148-33.574
		S287.734,172.066,250.803,172.066"/>
	<path d="M250.803,331.541c-136.813,0-243.41-55.397-243.41-125.902c0-36.931,28.538-69.666,80.577-94.007
		c4.197-1.679,9.233,0,10.911,4.197c1.679,4.197,0,9.233-4.197,10.911C50.2,147.725,24.18,176.262,24.18,205.639
		c0,58.754,104.079,109.115,226.623,109.115s226.623-50.361,226.623-109.115S373.348,96.525,250.803,96.525
		c-34.413,0-67.987,3.357-99.043,10.911c-4.197,0.839-9.233-1.679-10.072-5.875c-0.839-4.197,1.679-9.233,5.875-10.072
		c32.734-7.554,67.148-11.751,103.239-11.751c136.813,0,243.41,55.397,243.41,125.902S387.616,331.541,250.803,331.541z"/>
	<path d="M128.259,105.757c0-5.036-3.357-8.393-8.393-8.393c-5.036,0-8.393,3.357-8.393,8.393s3.357,8.393,8.393,8.393
		C124.902,114.151,128.259,109.954,128.259,105.757"/>
	<path d="M250.803,281.18c-79.738,0-142.689-33.574-142.689-75.541s62.951-75.541,142.689-75.541s142.689,33.574,142.689,75.541
		S330.541,281.18,250.803,281.18z M250.803,146.885c-67.987,0-125.902,26.859-125.902,58.754s57.915,58.754,125.902,58.754
		s125.902-26.859,125.902-58.754S318.79,146.885,250.803,146.885z"/>
	<path d="M250.803,247.607c-42.807,0-75.541-17.626-75.541-41.967s32.734-41.967,75.541-41.967s75.541,17.626,75.541,41.967
		S293.61,247.607,250.803,247.607z M250.803,180.459c-33.574,0-58.754,13.43-58.754,25.18c0,11.751,25.18,25.18,58.754,25.18
		s58.754-13.43,58.754-25.18C309.557,193.889,284.377,180.459,250.803,180.459z"/>
	<path d="M250.803,423.869H91.328V314.754h159.475c122.544,0,226.623-50.361,226.623-109.115h16.787v92.328
		C494.213,368.472,387.616,423.869,250.803,423.869z M108.115,407.082h142.689c122.544,0,226.623-50.361,226.623-109.115v-45.325
		c-35.252,46.164-122.544,78.898-226.623,78.898H108.115V407.082z"/>
	<path d="M250.803,331.541H15.787l-2.518-5.036c-4.197-9.233-5.875-19.305-5.875-28.538v-92.328H24.18
		c0,58.754,104.079,109.115,226.623,109.115V331.541z M26.698,314.754H127.42c-47.003-14.269-83.095-36.092-103.239-62.111v45.325
		C24.18,303.843,25.02,308.879,26.698,314.754z"/>
	<path d="M108.115,423.869H36.77C15.787,423.869-1,407.082-1,386.098v-32.734c0-21.823,16.787-38.61,37.77-38.61h71.344V423.869z
		 M36.77,331.541c-11.751,0-20.984,9.233-20.984,20.984v32.734c0,12.59,9.233,21.823,20.984,21.823h54.557v-75.541H36.77z"/>
	<path d="M53.557,398.689c-15.948,0-29.377-13.43-29.377-29.377c0-15.948,13.43-29.377,29.377-29.377s29.377,13.429,29.377,29.377
		C82.934,385.259,69.505,398.689,53.557,398.689z M53.557,356.721c-6.715,0-12.59,5.875-12.59,12.59s5.875,12.59,12.59,12.59
		s12.59-5.875,12.59-12.59S60.272,356.721,53.557,356.721z"/>
	<path d="M141.689,423.869c-5.036,0-8.393-3.357-8.393-8.393v-25.18c0-5.036,3.357-8.393,8.393-8.393
		c5.036,0,8.393,3.357,8.393,8.393v25.18C150.082,420.511,145.885,423.869,141.689,423.869z"/>
	<path d="M183.656,423.869c-5.036,0-8.393-3.357-8.393-8.393v-25.18c0-5.036,3.357-8.393,8.393-8.393s8.393,3.357,8.393,8.393v25.18
		C192.049,420.511,187.852,423.869,183.656,423.869z"/>
	<path d="M225.623,423.869c-5.036,0-8.393-3.357-8.393-8.393v-25.18c0-5.036,3.357-8.393,8.393-8.393s8.393,3.357,8.393,8.393v25.18
		C234.016,420.511,229.82,423.869,225.623,423.869z"/>
	<path d="M267.59,423.869c-5.036,0-8.393-3.357-8.393-8.393v-25.18c0-5.036,3.357-8.393,8.393-8.393
		c5.036,0,8.393,3.357,8.393,8.393v25.18C275.984,420.511,271.787,423.869,267.59,423.869z"/>
	<path d="M309.557,420.511c-5.036,0-8.393-3.357-8.393-8.393v-21.823c0-5.036,3.357-8.393,8.393-8.393
		c5.036,0,8.393,3.357,8.393,8.393v21.823C317.951,416.315,313.754,420.511,309.557,420.511z"/>
	<path d="M351.525,412.957c-5.036,0-8.393-3.357-8.393-8.393v-22.662c0-5.036,3.357-8.393,8.393-8.393s8.393,3.357,8.393,8.393
		v22.662C359.918,408.761,355.721,412.957,351.525,412.957z"/>
	<path d="M393.492,399.528c-5.036,0-8.393-3.357-8.393-8.393v-26.02c0-5.036,3.357-8.393,8.393-8.393
		c5.036,0,8.393,3.357,8.393,8.393v26.02C401.885,396.17,397.689,399.528,393.492,399.528z"/>
	<path d="M435.459,379.384c-5.036,0-8.393-3.357-8.393-8.393v-22.662c0-5.036,3.357-8.393,8.393-8.393
		c5.036,0,8.393,3.357,8.393,8.393v22.662C443.852,375.187,439.656,379.384,435.459,379.384z"/>
	<path d="M469.033,350.007c-4.197,0-8.393-3.357-8.393-8.393v-18.466c0-5.036,3.357-8.393,8.393-8.393l0,0
		c4.197,0,8.393,3.357,8.393,8.393v18.466C477.426,345.81,474.069,350.007,469.033,350.007L469.033,350.007z"/>
</g>
</svg>